<?xml version="1.0"?>
<svg xmlns="http://www.w3.org/2000/svg" xmlns:xlink="http://www.w3.org/1999/xlink" version="1.1" id="Capa_1" x="0px" y="0px" viewBox="0 0 64.5 64.5" style="enable-background:new 0 0 64.5 64.5;" xml:space="preserve" width="512px" height="512px" class=""><g><g>
	<g id="group-18svg">
		<path id="path-1_9_" style="fill:#68BED1" d="M46.555,6.912c-4.012,0-7.703,4.986-10.692,7.211    c-2.988-2.225-6.678-7.211-10.69-7.211c-9.911,0-17.945,8.039-17.945,17.956c0,9.916,25.647,39.201,28.635,36.976    C38.852,64.069,64.5,34.784,64.5,24.868C64.5,14.951,56.466,6.912,46.555,6.912z" data-original="#E56A77" class="" data-old_color="#68bed1"/>
		<path id="path-2_9_" d="M29.888,44.441c-1.177,0-2.184-0.525-2.511-1.659L22.632,26.43h-4.038l-2.556,3.945    c-0.486,0.78-1.315,1.058-2.222,1.058c-0.009,0-0.019,0-0.028,0c-0.877,0-1.683-0.238-2.163-0.971l-4.197-6.033h-4.89    c-0.828,0-1.5-0.672-1.5-1.5c0-0.829,0.672-1.501,1.5-1.501h4.945c0.523-0.005,1.553-0.012,2.19,0.965l4.116,6.109l2.274-3.699    c0.54-0.864,1.369-1.374,2.223-1.374h4.675c1.267,0,2.223,1.019,2.513,2.025l4.403,15.389l3.384-12.687    c0.305-1.144,1.305-1.926,2.488-1.945c1.169-0.039,2.199,0.724,2.541,1.853l2.184,7.187l7.444-10.579    c0.561-0.792,1.338-1.243,2.137-1.243h7.483c0.828,0,1.5,0.672,1.5,1.501c0,0.828-0.672,1.5-1.5,1.5h-7.177l-7.883,11.187    c-0.591,0.834-1.579,1.25-2.58,1.087c-0.982-0.16-1.771-0.851-2.059-1.804l-2.026-6.67l-3.396,12.5    c-0.307,1.151-1.313,1.711-2.503,1.711C29.905,44.441,29.897,44.441,29.888,44.441z" data-original="#000000" class="active-path" style="fill:#333333" data-old_color="#2A2929"/>
		<path id="path-3_9_" d="M30.551,60.45c-0.001,0-0.001,0-0.002,0c-0.141,0-0.278,0.063-0.412,0.039    c-0.134,0.024-0.273,0.074-0.414,0.074C23.869,60.563,0,31.636,0,21.984C0,11.255,8.723,2.536,19.445,2.536    c3.469,0,6.415,2.786,9.014,5.239c0.583,0.55,1.146,1.084,1.678,1.546c0.532-0.462,1.095-0.992,1.679-1.543    c2.598-2.452,5.544-5.233,9.011-5.233c10.723,0,19.446,8.728,19.446,19.457c0,6.486-8.946,18.223-12.791,23    C46.202,46.591,34.861,60.45,30.551,60.45z M30.137,57.478c0.176,0,0.352,0.031,0.519,0.093    c3.955-1.085,26.617-26.579,26.617-35.569c0-9.073-7.377-16.455-16.446-16.455c-2.275,0-4.76,2.346-6.953,4.416    c-0.989,0.933-1.923,1.814-2.842,2.498c-0.531,0.397-1.259,0.397-1.791,0c-0.919-0.684-1.852-1.565-2.84-2.498    c-2.194-2.07-4.679-4.416-6.956-4.416C10.377,5.547,3,12.929,3,22.002c0,8.99,22.66,34.481,26.617,35.569    C29.785,57.509,29.961,57.478,30.137,57.478z" data-original="#000000" class="active-path" style="fill:#333333" data-old_color="#2A2929"/>
	</g>
</g></g> </svg>
