<?xml version="1.0"?>
<svg xmlns="http://www.w3.org/2000/svg" xmlns:xlink="http://www.w3.org/1999/xlink" version="1.1" id="Layer_1" x="0px" y="0px" viewBox="0 0 512.002 512.002" style="enable-background:new 0 0 512.002 512.002;" xml:space="preserve" width="512px" height="512px" class=""><g><g>
	<g>
		<path d="M369.78,96.688c-13.597-11.341-31.737-15.013-48.521-9.816c-16.427,5.085-29.188,17.875-34.524,34.41V37.29    c0-16.753-13.37-30.857-29.804-31.441c-8.478-0.314-16.499,2.771-22.591,8.65c-6.093,5.881-9.45,13.784-9.45,22.252v83.342    c-5.554-15.964-18.115-28.26-34.151-33.222c-16.784-5.196-34.923-1.526-48.52,9.816C51.837,172.084,0,283.558,0,402.525    c0,19.955,1.476,40.013,4.39,59.617c2.369,15.949,13.687,29.238,28.832,33.855c22.148,6.752,45.2,10.176,68.513,10.176    c32.205,0,63.466-6.436,92.916-19.128c10.841-4.672,19.239-13.846,23.043-25.171c19.694-58.626,29.68-120.051,29.68-182.568    c0-1.391-0.028-2.783-0.037-4.175c0.004-0.064,0.011-0.142,0.015-0.201c0.037-0.51,0.021-1.012-0.03-1.503    c-0.015-1.433-0.013-2.864-0.038-4.298c0-0.013,0.001-0.027,0-0.04c0-0.008-0.001-0.017-0.001-0.025    c-0.404-22.83-2.175-45.681-5.24-68.136l11.973-9.977c1.043-0.868,2.556-0.868,3.599,0l12.309,10.258    c-3.044,22.372-4.801,45.137-5.203,67.879v0.002c0,0,0,0.002,0,0.003c-0.06,3.406-0.092,6.811-0.092,10.215    c0,5.241,0.097,10.471,0.236,15.695c-0.017,0.382-0.002,0.77,0.035,1.16c1.634,56.696,11.487,112.364,29.408,165.713    c3.804,11.324,12.204,20.499,23.044,25.171c29.449,12.693,60.711,19.128,92.917,19.128c23.312,0,46.363-3.424,68.513-10.176    c15.144-4.616,26.462-17.906,28.831-33.855c2.913-19.607,4.39-39.664,4.39-59.616C512,283.558,460.163,172.084,369.78,96.688z     M241.757,36.752c0-3.849,1.526-7.442,4.297-10.116c2.768-2.672,6.425-4.064,10.28-3.931c7.463,0.265,13.535,6.807,13.535,14.585    v17.008c-8.185,6.566-19.926,6.566-28.111,0V36.752z M241.757,73.485c4.516,1.724,9.282,2.603,14.056,2.603    c4.773,0,9.54-0.879,14.056-2.603v14.508c-8.192,6.507-19.92,6.507-28.111,0V73.485z M241.757,107.146    c4.516,1.714,9.282,2.586,14.056,2.586c4.773,0,9.54-0.873,14.056-2.586v12.995c-8.192,6.507-19.92,6.506-28.111-0.001V107.146z     M36.749,457.848c1.262,3.042,3.786,5.324,6.93,6.265c12.313,3.681,25.763,6.216,41.118,7.75c0.284,0.028,0.568,0.043,0.848,0.043    c4.281,0,7.948-3.246,8.382-7.596c0.463-4.635-2.919-8.766-7.554-9.23c-2.577-0.258-5.094-0.544-7.554-0.861    c17.16-2.186,40.957-4.05,72.208-4.05c14.175,0,27.259-4.937,38.93-14.71l1.119-0.95c10.88-9.487,19.701-22.697,26.844-37.505    c-4.329,20.105-9.752,39.965-16.315,59.499c-2.279,6.788-7.284,12.274-13.731,15.052c-27.329,11.779-56.344,17.752-86.24,17.752    c-21.645,0-43.041-3.178-63.594-9.443c-8.95-2.728-15.649-10.658-17.067-20.201c-2.79-18.786-4.205-38.01-4.205-57.138    c0-113.95,49.628-220.702,136.158-292.884c9.328-7.78,21.258-10.206,32.728-6.657c11.585,3.586,20.517,12.863,23.892,24.817    c1.498,5.306,2.903,10.694,4.249,16.076l-22.727,18.94c-6.231-9.545-9.653-20.837-9.653-32.61l0.002-0.341    c0.043-3.59,1.081-6.646,3.086-9.08c2.96-3.596,2.443-8.911-1.153-11.871c-3.596-2.958-8.911-2.443-11.871,1.153    c-4.444,5.398-6.839,12.176-6.928,19.604l-0.003,0.536c0,22.483,9.72,43.644,26.667,58.058    c23.698,20.154,37.944,49.763,39.104,81.255c0.029,1.673,0.031,3.346,0.045,5.02c-0.885,11.035-10.032,112.009-50.329,147.216    l-0.947,0.804c-8.63,7.227-17.808,10.74-28.058,10.74c-61.238,0-95.354,7.087-107.175,10.134c-2.28,0.586-4.026,1.969-5.088,3.026    l-0.415,0.413l-0.353,0.466c-0.338,0.445-0.645,0.922-0.911,1.415C35.675,451.559,35.517,454.874,36.749,457.848z M243.217,177.99    l-21.639,18.033c-5.61-7.497-12.051-14.401-19.261-20.543l21.233-17.694c1.311,1.859,2.785,3.624,4.437,5.266    c6.345,6.306,14.338,9.996,22.614,11.086C247.958,174.863,245.434,176.141,243.217,177.99z M239.876,151.089    c-1.323-1.316-2.436-2.777-3.371-4.33c2.072-2.234,3.571-4.899,4.424-7.791c4.759,1.931,9.819,2.912,14.885,2.912    s10.126-0.982,14.885-2.912c0.852,2.892,2.35,5.558,4.424,7.791c-0.936,1.552-2.047,3.013-3.371,4.329    C262.962,159.822,248.664,159.822,239.876,151.089z M268.41,177.992c-2.219-1.85-4.743-3.127-7.385-3.852    c8.276-1.09,16.269-4.78,22.614-11.086c1.652-1.642,3.126-3.407,4.437-5.266l21.424,17.854    c-7.196,6.154-13.626,13.068-19.221,20.574L268.41,177.992z M490.927,459.663c-1.418,9.543-8.117,17.473-17.066,20.201    c-20.554,6.265-41.95,9.443-63.594,9.443c-29.896,0-58.912-5.973-86.241-17.752c-6.446-2.777-11.451-8.265-13.731-15.052    c-12.3-36.619-20.675-74.37-25.099-112.805c10.949,13.921,25.335,24.42,41.251,29.091l1.163,0.342h0.389    c13.839,4.595,23.082,18.004,22.606,33.014l-0.838,26.497c-0.292,9.236,7.001,17.015,16.257,17.34l0.297,0.006    c30.608,0,52.496,1.831,68.071,4.004c-2.993,0.407-6.069,0.768-9.237,1.084c-4.635,0.463-8.016,4.595-7.554,9.229    c0.434,4.351,4.101,7.597,8.382,7.596c0.28,0,0.563-0.013,0.848-0.043c15.356-1.534,28.805-4.068,41.12-7.75    c3.142-0.94,5.667-3.224,6.929-6.264c1.234-2.974,1.074-6.289-0.436-9.095c-0.265-0.494-0.572-0.97-0.911-1.416l-0.353-0.466    l-0.415-0.413c-1.063-1.057-2.808-2.439-5.092-3.027c-11.951-3.08-39.909-10.284-101.043-10.308l0.837-26.444    c0.731-23.079-13.993-43.67-35.806-50.072l-1.164-0.342h-0.415c-24.287-7.703-44.009-32.743-48.349-61.472    c-0.141-5.156-0.237-10.316-0.237-15.487c0-3.254,0.031-6.509,0.088-9.766c1.155-31.502,15.4-61.118,39.104-81.276    c16.947-14.412,26.666-35.574,26.666-58.058l-0.002-0.542c-0.089-7.421-2.484-14.197-6.928-19.597    c-2.958-3.596-8.273-4.113-11.871-1.153c-3.596,2.96-4.113,8.274-1.153,11.871c2.004,2.437,3.043,5.491,3.085,9.074l0.001,0.347    c0,11.857-3.468,23.227-9.783,32.815l-22.663-18.886c1.364-5.466,2.792-10.94,4.315-16.334    c3.374-11.953,12.306-21.231,23.891-24.817c11.471-3.552,23.401-1.124,32.729,6.657c86.53,72.182,136.158,178.934,136.158,292.884    C495.133,421.649,493.719,440.874,490.927,459.663z" data-original="#000000" class="active-path" data-old_color="#000000fill:#000000fill:#000000fill:#000000fill:#000000fill:#000000fill:#000000fill:#000000fill:#000000fill:#000000fill:#000000fill:#000000fill:#000000fill:#000000fill:#000000fill:#000000fill:#000000fill:#000000fill:#000000fill:#000000fill:#000000fill:#000000fill:#000000fill:#000000fill:#000000fill:#000000fill:#000000fill:#000000fill:#000000fill:#000000fill:#000000fill:#000000fill:#000000fill:#000000fill:#000000fill:#000000fill:#000000fill:#000000fill:#000000fill:#000000fill:#000000fill:#000000fill:#000000fill:#000000fill:#000000fill:#000000fill:#000000fill:#000000fill:#000000fill:#000000fill:#000000fill:#000000fill:#000000fill:#000000fill:#000000fill:#000000fill:#000000fill:#000000fill:#000000fill:#000000fill:#000000fill:#000000fill:#000000fill:#000000fill:#000000fill:#000000fill:#000000fill:#000000fill:#000000fill:#000000fill:#000000fill:#000000fill:#000000fill:#000000fill:#000000fill:#000000fill:#000000fill:#000000fill:#000000fill:#000000fill:#000000fill:#000000fill:#000000fill:#000000fill:#000000fill:#000000fill:#000000fill:#000000fill:#000000fill:#000000fill:#000000fill:#000000fill:#000000fill:#000000fill:#000000fill:#000000fill:#000000fill:#000000fill:#000000fill:#000000fill:#000000fill:#000000fill:#000000fill:#000000fill:#000000fill:#000000fill:#000000fill:#000000fill:#000000fill:#000000fill:#000000fill:#000000fill:#68bed1fill:#68BED1fill:#000000fill:#000000fill:#000000fill:#000000fill:#000000fill:#000000fill:#000000fill:#000000fill:#000000fill:#000000fill:#000000fill:#000000fill:#000000fill:#000000fill:#000000fill:#000000fill:#000000fill:#000000fill:#000000fill:#000000fill:#000000" fill="#68bed1"/>
	</g>
</g><g>
	<g>
		<circle cx="255.813" cy="36.752" r="8.433" data-original="#000000" class="active-path" data-old_color="#000000fill:#000000fill:#000000fill:#000000fill:#000000fill:#000000fill:#000000fill:#000000fill:#000000fill:#000000fill:#000000fill:#000000fill:#000000fill:#000000fill:#000000fill:#000000fill:#000000fill:#000000fill:#000000fill:#000000fill:#000000fill:#000000fill:#000000fill:#000000fill:#000000fill:#000000fill:#000000fill:#000000fill:#000000fill:#000000fill:#000000fill:#000000fill:#000000fill:#000000fill:#000000fill:#000000fill:#000000fill:#000000fill:#000000fill:#000000fill:#000000fill:#000000fill:#000000fill:#000000fill:#000000fill:#000000fill:#000000fill:#000000fill:#000000fill:#000000fill:#000000fill:#000000fill:#000000fill:#000000fill:#000000fill:#000000fill:#000000fill:#000000fill:#000000fill:#000000fill:#000000fill:#000000fill:#000000fill:#000000fill:#000000fill:#000000fill:#000000fill:#000000fill:#000000fill:#000000fill:#000000fill:#000000fill:#000000fill:#000000fill:#000000fill:#000000fill:#000000fill:#000000fill:#000000fill:#000000fill:#000000fill:#000000fill:#000000fill:#000000fill:#000000fill:#000000fill:#000000fill:#000000fill:#000000fill:#000000fill:#000000fill:#000000fill:#000000fill:#000000fill:#000000fill:#000000fill:#000000fill:#000000fill:#000000fill:#000000fill:#000000fill:#000000fill:#000000fill:#000000fill:#000000fill:#000000fill:#000000fill:#000000fill:#000000fill:#000000fill:#000000fill:#000000fill:#68bed1fill:#68BED1fill:#000000fill:#000000fill:#000000fill:#000000fill:#000000fill:#000000fill:#000000fill:#000000fill:#000000fill:#000000fill:#000000fill:#000000fill:#000000fill:#000000fill:#000000fill:#000000fill:#000000fill:#000000fill:#000000fill:#000000fill:#000000" fill="#68bed1"/>
	</g>
</g></g> </svg>
