<?xml version="1.0"?>
<svg xmlns="http://www.w3.org/2000/svg" xmlns:xlink="http://www.w3.org/1999/xlink" version="1.1" id="Capa_1" x="0px" y="0px" viewBox="0 0 512 512" style="enable-background:new 0 0 512 512;" xml:space="preserve" width="512px" height="512px" class=""><g><g>
	<g>
		<path d="M336,41c-5.52,0-10,4.479-10,10c0,5.52,4.48,10,10,10c5.52,0,10-4.48,10-10C346,45.479,341.52,41,336,41z" data-original="#000000" class="active-path" data-old_color="#000000fill:#000000fill:#000000fill:#000000fill:#000000fill:#000000fill:#000000fill:#68bed1fill:#68BED1fill:#000000fill:#000000fill:#000000fill:#000000fill:#000000fill:#000000fill:#000000fill:#000000fill:#000000fill:#000000fill:#000000" fill="#68bed1"/>
	</g>
</g><g>
	<g>
		<path d="M336,401c-5.52,0-10,4.479-10,10c0,5.52,4.48,10,10,10c5.52,0,10-4.48,10-10C346,405.479,341.52,401,336,401z" data-original="#000000" class="active-path" data-old_color="#000000fill:#000000fill:#000000fill:#000000fill:#000000fill:#000000fill:#000000fill:#68bed1fill:#68BED1fill:#000000fill:#000000fill:#000000fill:#000000fill:#000000fill:#000000fill:#000000fill:#000000fill:#000000fill:#000000fill:#000000" fill="#68bed1"/>
	</g>
</g><g>
	<g>
		<path d="M336,441c-5.52,0-10,4.479-10,10c0,5.52,4.48,10,10,10c5.52,0,10-4.48,10-10C346,445.479,341.52,441,336,441z" data-original="#000000" class="active-path" data-old_color="#000000fill:#000000fill:#000000fill:#000000fill:#000000fill:#000000fill:#000000fill:#68bed1fill:#68BED1fill:#000000fill:#000000fill:#000000fill:#000000fill:#000000fill:#000000fill:#000000fill:#000000fill:#000000fill:#000000fill:#000000" fill="#68bed1"/>
	</g>
</g><g>
	<g>
		<path d="M336,81c-5.52,0-10,4.47-10,10c0,5.52,4.48,10,10,10c5.52,0,10-4.48,10-10C346,85.47,341.52,81,336,81z" data-original="#000000" class="active-path" data-old_color="#000000fill:#000000fill:#000000fill:#000000fill:#000000fill:#000000fill:#000000fill:#68bed1fill:#68BED1fill:#000000fill:#000000fill:#000000fill:#000000fill:#000000fill:#000000fill:#000000fill:#000000fill:#000000fill:#000000fill:#000000" fill="#68bed1"/>
	</g>
</g><g>
	<g>
		<path d="M336,321c-5.52,0-10,4.47-10,10c0,5.52,4.48,10,10,10c5.52,0,10-4.48,10-10C346,325.47,341.52,321,336,321z" data-original="#000000" class="active-path" data-old_color="#000000fill:#000000fill:#000000fill:#000000fill:#000000fill:#000000fill:#000000fill:#68bed1fill:#68BED1fill:#000000fill:#000000fill:#000000fill:#000000fill:#000000fill:#000000fill:#000000fill:#000000fill:#000000fill:#000000fill:#000000" fill="#68bed1"/>
	</g>
</g><g>
	<g>
		<path d="M336,361c-5.52,0-10,4.479-10,10c0,5.52,4.48,10,10,10c5.52,0,10-4.48,10-10C346,365.479,341.52,361,336,361z" data-original="#000000" class="active-path" data-old_color="#000000fill:#000000fill:#000000fill:#000000fill:#000000fill:#000000fill:#000000fill:#68bed1fill:#68BED1fill:#000000fill:#000000fill:#000000fill:#000000fill:#000000fill:#000000fill:#000000fill:#000000fill:#000000fill:#000000fill:#000000" fill="#68bed1"/>
	</g>
</g><g>
	<g>
		<path d="M336,241c-5.52,0-10,4.47-10,10c0,5.52,4.48,10,10,10c5.52,0,10-4.48,10-10C346,245.47,341.52,241,336,241z" data-original="#000000" class="active-path" data-old_color="#000000fill:#000000fill:#000000fill:#000000fill:#000000fill:#000000fill:#000000fill:#68bed1fill:#68BED1fill:#000000fill:#000000fill:#000000fill:#000000fill:#000000fill:#000000fill:#000000fill:#000000fill:#000000fill:#000000fill:#000000" fill="#68bed1"/>
	</g>
</g><g>
	<g>
		<path d="M336,201c-5.52,0-10,4.479-10,10c0,5.52,4.48,10,10,10c5.52,0,10-4.48,10-10C346,205.479,341.52,201,336,201z" data-original="#000000" class="active-path" data-old_color="#000000fill:#000000fill:#000000fill:#000000fill:#000000fill:#000000fill:#000000fill:#68bed1fill:#68BED1fill:#000000fill:#000000fill:#000000fill:#000000fill:#000000fill:#000000fill:#000000fill:#000000fill:#000000fill:#000000fill:#000000" fill="#68bed1"/>
	</g>
</g><g>
	<g>
		<path d="M336,281c-5.52,0-10,4.479-10,10c0,5.52,4.48,10,10,10c5.52,0,10-4.48,10-10C346,285.479,341.52,281,336,281z" data-original="#000000" class="active-path" data-old_color="#000000fill:#000000fill:#000000fill:#000000fill:#000000fill:#000000fill:#000000fill:#68bed1fill:#68BED1fill:#000000fill:#000000fill:#000000fill:#000000fill:#000000fill:#000000fill:#000000fill:#000000fill:#000000fill:#000000fill:#000000" fill="#68bed1"/>
	</g>
</g><g>
	<g>
		<path d="M10,492c-5.51,0-10,4.49-10,10s4.49,10,10,10c5.52,0,10-4.49,10-10S15.52,492,10,492z" data-original="#000000" class="active-path" data-old_color="#000000fill:#000000fill:#000000fill:#000000fill:#000000fill:#000000fill:#000000fill:#68bed1fill:#68BED1fill:#000000fill:#000000fill:#000000fill:#000000fill:#000000fill:#000000fill:#000000fill:#000000fill:#000000fill:#000000fill:#000000" fill="#68bed1"/>
	</g>
</g><g>
	<g>
		<path d="M502,492H386V10c0-5.522-4.477-10-10-10h-80c-5.523,0-10,4.478-10,10v111h-20c-5.523,0-10,4.478-10,10v30h-39    c-5.523,0-10,4.478-10,10c0,5.522,4.477,10,10,10h69v271H176c-24.146,0-44.348,17.205-48.994,40H50c-5.51,0-10,4.49-10,10    s4.49,10,10,10h452c5.51,0,10-4.49,10-10S507.51,492,502,492z M286,492H147.713c4.127-11.641,15.249-20,28.287-20h110V492z     M366,492h-60V181h60V492z M366,161h-90v-20h90V161z M366,121h-60V20h60V121z" data-original="#000000" class="active-path" data-old_color="#000000fill:#000000fill:#000000fill:#000000fill:#000000fill:#000000fill:#000000fill:#68bed1fill:#68BED1fill:#000000fill:#000000fill:#000000fill:#000000fill:#000000fill:#000000fill:#000000fill:#000000fill:#000000fill:#000000fill:#000000" fill="#68bed1"/>
	</g>
</g></g> </svg>
