<?xml version="1.0"?>
<svg xmlns="http://www.w3.org/2000/svg" xmlns:xlink="http://www.w3.org/1999/xlink" version="1.1" id="Capa_1" x="0px" y="0px" viewBox="0 0 512 512" style="enable-background:new 0 0 512 512;" xml:space="preserve" width="512px" height="512px" class=""><g><g>
	<g>
		<path d="M256,452c-5.52,0-10,4.48-10,10c0,5.52,4.48,10,10,10s10-4.48,10-10C266,456.48,261.52,452,256,452z" data-original="#000000" class="active-path" data-old_color="#000000fill:#000000fill:#000000fill:#000000fill:#000000fill:#000000fill:#000000fill:#000000fill:#000000fill:#000000fill:#000000fill:#000000fill:#000000fill:#000000fill:#000000fill:#000000fill:#000000fill:#000000fill:#000000fill:#000000fill:#000000fill:#000000fill:#000000fill:#68bed1fill:#68BED1fill:#000000fill:#000000fill:#000000fill:#000000fill:#000000fill:#000000fill:#000000fill:#000000fill:#000000fill:#000000fill:#000000" fill="#68bed1"/>
	</g>
</g><g>
	<g>
		<path d="M442,0H70C31.402,0,0,31.402,0,70v372c0,38.598,31.402,70,70,70h372c38.598,0,70-31.402,70-70V70    C512,31.402,480.598,0,442,0z M492,442c0,27.57-22.43,50-50,50H70c-27.57,0-50-22.43-50-50V70c0-27.57,22.43-50,50-50h372    c27.57,0,50,22.43,50,50V442z" data-original="#000000" class="active-path" data-old_color="#000000fill:#000000fill:#000000fill:#000000fill:#000000fill:#000000fill:#000000fill:#000000fill:#000000fill:#000000fill:#000000fill:#000000fill:#000000fill:#000000fill:#000000fill:#000000fill:#000000fill:#000000fill:#000000fill:#000000fill:#000000fill:#000000fill:#000000fill:#68bed1fill:#68BED1fill:#000000fill:#000000fill:#000000fill:#000000fill:#000000fill:#000000fill:#000000fill:#000000fill:#000000fill:#000000fill:#000000" fill="#68bed1"/>
	</g>
</g><g>
	<g>
		<path d="M442,40h-46c-5.522,0-10,4.477-10,10v123c0,16.542-13.458,30-30,30H156c-16.542,0-30-13.458-30-30V50    c0-5.523-4.478-10-10-10H70c-16.542,0-30,13.458-30,30v372c0,16.542,13.458,30,30,30h146c5.522,0,10-4.477,10-10s-4.478-10-10-10    H70c-5.514,0-10-4.486-10-10V70c0-5.514,4.486-10,10-10h36v113c0,27.57,22.43,50,50,50h200c27.57,0,50-22.43,50-50V60h36    c5.514,0,10,4.486,10,10v372c0,5.514-4.486,10-10,10H296c-5.522,0-10,4.477-10,10s4.478,10,10,10h146c16.542,0,30-13.458,30-30V70    C472,53.458,458.542,40,442,40z" data-original="#000000" class="active-path" data-old_color="#000000fill:#000000fill:#000000fill:#000000fill:#000000fill:#000000fill:#000000fill:#000000fill:#000000fill:#000000fill:#000000fill:#000000fill:#000000fill:#000000fill:#000000fill:#000000fill:#000000fill:#000000fill:#000000fill:#000000fill:#000000fill:#000000fill:#000000fill:#68bed1fill:#68BED1fill:#000000fill:#000000fill:#000000fill:#000000fill:#000000fill:#000000fill:#000000fill:#000000fill:#000000fill:#000000fill:#000000" fill="#68bed1"/>
	</g>
</g><g>
	<g>
		<path d="M356,40H156c-5.522,0-10,4.477-10,10c0,13.353,0,107.468,0,123c0,5.523,4.478,10,10,10h200c5.522,0,10-4.477,10-10    c0-12.865,0-111.08,0-123C366,44.477,361.522,40,356,40z M346,163h-80v-30c0-5.523-4.478-10-10-10c-5.522,0-10,4.477-10,10v30h-80    v-13.255C186.64,120.421,220.06,103,256,103s69.36,17.421,90,46.745V163z M346,119.175C322.044,96.171,289.975,83,256,83    c-33.975,0-66.044,13.171-90,36.175V60h180V119.175z" data-original="#000000" class="active-path" data-old_color="#000000fill:#000000fill:#000000fill:#000000fill:#000000fill:#000000fill:#000000fill:#000000fill:#000000fill:#000000fill:#000000fill:#000000fill:#000000fill:#000000fill:#000000fill:#000000fill:#000000fill:#000000fill:#000000fill:#000000fill:#000000fill:#000000fill:#000000fill:#68bed1fill:#68BED1fill:#000000fill:#000000fill:#000000fill:#000000fill:#000000fill:#000000fill:#000000fill:#000000fill:#000000fill:#000000fill:#000000" fill="#68bed1"/>
	</g>
</g><g>
	<g>
		<path d="M176.92,246H176c-27.57,0-50,22.43-50,50v96c0,10.68,4.162,20.723,11.719,28.281C145.275,427.838,155.319,432,166,432    c22.056,0,40-17.944,40-40v-9.04c0-34.128,12.656-54.389,17.345-68.387C236.454,281.797,212.326,246,176.92,246z M204.775,307.144    C200.242,320.824,186,344.177,186,382.96V392c0,11.028-8.972,20-20,20c-5.338,0-10.359-2.082-14.139-5.861    C148.082,402.359,146,397.338,146,392v-96c0-16.542,13.458-30,30-30h0.92C198.048,266,212.713,287.299,204.775,307.144z" data-original="#000000" class="active-path" data-old_color="#000000fill:#000000fill:#000000fill:#000000fill:#000000fill:#000000fill:#000000fill:#000000fill:#000000fill:#000000fill:#000000fill:#000000fill:#000000fill:#000000fill:#000000fill:#000000fill:#000000fill:#000000fill:#000000fill:#000000fill:#000000fill:#000000fill:#000000fill:#68bed1fill:#68BED1fill:#000000fill:#000000fill:#000000fill:#000000fill:#000000fill:#000000fill:#000000fill:#000000fill:#000000fill:#000000fill:#000000" fill="#68bed1"/>
	</g>
</g><g>
	<g>
		<path d="M336,246h-0.92c-35.356,0-59.55,35.757-46.424,68.576C293.248,328.284,306,348.752,306,382.96V392    c0,22.056,17.944,40,40,40c10.681,0,20.725-4.162,28.281-11.719C381.838,412.723,386,402.68,386,392v-96    C386,268.43,363.57,246,336,246z M366,392c0,5.338-2.082,10.359-5.861,14.139C356.359,409.918,351.338,412,346,412    c-11.028,0-20-8.972-20-20v-9.04c0-38.84-14.363-62.503-18.774-75.813C299.362,287.484,313.743,266,335.08,266H336    c16.542,0,30,13.458,30,30V392z" data-original="#000000" class="active-path" data-old_color="#000000fill:#000000fill:#000000fill:#000000fill:#000000fill:#000000fill:#000000fill:#000000fill:#000000fill:#000000fill:#000000fill:#000000fill:#000000fill:#000000fill:#000000fill:#000000fill:#000000fill:#000000fill:#000000fill:#000000fill:#000000fill:#000000fill:#000000fill:#68bed1fill:#68BED1fill:#000000fill:#000000fill:#000000fill:#000000fill:#000000fill:#000000fill:#000000fill:#000000fill:#000000fill:#000000fill:#000000" fill="#68bed1"/>
	</g>
</g></g> </svg>
